<mxfile host="app.diagrams.net" modified="2023-08-24T17:35:44.252Z" agent="Mozilla/5.0 (Macintosh; Intel Mac OS X 10_15_7) AppleWebKit/537.36 (KHTML, like Gecko) Chrome/116.0.0.0 Safari/537.36" etag="62kEwy8OTc9Ew6QJdFwz" version="21.6.9" type="github" pages="2">
  <diagram name="Page-1" id="_ZpUL0hX9ULFd7SisSlQ">
    <mxGraphModel dx="1260" dy="3100" grid="1" gridSize="10" guides="1" tooltips="1" connect="1" arrows="1" fold="1" page="1" pageScale="1" pageWidth="827" pageHeight="1169" math="0" shadow="0">
      <root>
        <mxCell id="0" />
        <mxCell id="1" parent="0" />
        <mxCell id="4-7ApPX3nYWWJ4g4WrPT-74" style="edgeStyle=orthogonalEdgeStyle;rounded=0;orthogonalLoop=1;jettySize=auto;html=1;exitX=0.5;exitY=0;exitDx=0;exitDy=0;entryX=0.5;entryY=1;entryDx=0;entryDy=0;" edge="1" parent="1" source="dLc1B_IZl05POrYxlycI-2" target="4-7ApPX3nYWWJ4g4WrPT-72">
          <mxGeometry relative="1" as="geometry" />
        </mxCell>
        <mxCell id="dLc1B_IZl05POrYxlycI-2" value="&lt;h3&gt;Tập trung đa đầu&lt;/h3&gt;" style="rounded=0;whiteSpace=wrap;html=1;fillColor=#66B2FF;" vertex="1" parent="1">
          <mxGeometry x="1129" y="130" width="140" height="50" as="geometry" />
        </mxCell>
        <mxCell id="4-7ApPX3nYWWJ4g4WrPT-10" value="" style="edgeStyle=orthogonalEdgeStyle;rounded=0;orthogonalLoop=1;jettySize=auto;html=1;" edge="1" parent="1" source="dLc1B_IZl05POrYxlycI-5" target="4-7ApPX3nYWWJ4g4WrPT-8">
          <mxGeometry relative="1" as="geometry" />
        </mxCell>
        <mxCell id="dLc1B_IZl05POrYxlycI-5" value="&lt;h3&gt;Mã hoá vị trí&lt;/h3&gt;" style="rounded=0;whiteSpace=wrap;html=1;fillColor=#99CCFF;" vertex="1" parent="1">
          <mxGeometry x="670" y="460" width="130" height="40" as="geometry" />
        </mxCell>
        <mxCell id="4-7ApPX3nYWWJ4g4WrPT-14" value="" style="edgeStyle=orthogonalEdgeStyle;rounded=0;orthogonalLoop=1;jettySize=auto;html=1;" edge="1" parent="1" source="dLc1B_IZl05POrYxlycI-6" target="4-7ApPX3nYWWJ4g4WrPT-4">
          <mxGeometry relative="1" as="geometry" />
        </mxCell>
        <mxCell id="dLc1B_IZl05POrYxlycI-6" value="&lt;h3&gt;Mạng truyền xuôi theo vị trí&lt;/h3&gt;" style="rounded=0;whiteSpace=wrap;html=1;fillColor=#66B2FF;" vertex="1" parent="1">
          <mxGeometry x="819" y="100" width="140" height="50" as="geometry" />
        </mxCell>
        <mxCell id="4-7ApPX3nYWWJ4g4WrPT-13" value="" style="edgeStyle=orthogonalEdgeStyle;rounded=0;orthogonalLoop=1;jettySize=auto;html=1;" edge="1" parent="1">
          <mxGeometry relative="1" as="geometry">
            <mxPoint x="890" y="220" as="sourcePoint" />
            <mxPoint x="890" y="150" as="targetPoint" />
          </mxGeometry>
        </mxCell>
        <mxCell id="dLc1B_IZl05POrYxlycI-7" value="&lt;h3&gt;Cộng &amp;amp; chuẩn hoá&amp;nbsp;&lt;/h3&gt;" style="rounded=0;whiteSpace=wrap;html=1;" vertex="1" parent="1">
          <mxGeometry x="819" y="220" width="140" height="50" as="geometry" />
        </mxCell>
        <mxCell id="4-7ApPX3nYWWJ4g4WrPT-12" value="" style="edgeStyle=orthogonalEdgeStyle;rounded=0;orthogonalLoop=1;jettySize=auto;html=1;" edge="1" parent="1" source="dLc1B_IZl05POrYxlycI-8" target="dLc1B_IZl05POrYxlycI-7">
          <mxGeometry relative="1" as="geometry" />
        </mxCell>
        <mxCell id="dLc1B_IZl05POrYxlycI-8" value="&lt;h3&gt;Tập trung đa đầu&lt;/h3&gt;" style="rounded=0;whiteSpace=wrap;html=1;fillColor=#66B2FF;" vertex="1" parent="1">
          <mxGeometry x="819" y="350" width="140" height="50" as="geometry" />
        </mxCell>
        <mxCell id="dLc1B_IZl05POrYxlycI-12" value="&lt;h3&gt;Kết Nối Dày Đặc&lt;/h3&gt;" style="rounded=0;whiteSpace=wrap;html=1;" vertex="1" parent="1">
          <mxGeometry x="320" y="290" width="140" height="50" as="geometry" />
        </mxCell>
        <mxCell id="dLc1B_IZl05POrYxlycI-28" style="edgeStyle=orthogonalEdgeStyle;rounded=0;orthogonalLoop=1;jettySize=auto;html=1;exitX=1;exitY=1;exitDx=0;exitDy=0;entryX=0.25;entryY=1;entryDx=0;entryDy=0;" edge="1" parent="1" source="dLc1B_IZl05POrYxlycI-13" target="dLc1B_IZl05POrYxlycI-16">
          <mxGeometry relative="1" as="geometry">
            <Array as="points">
              <mxPoint x="220" y="330" />
              <mxPoint x="260" y="330" />
              <mxPoint x="260" y="480" />
              <mxPoint x="355" y="480" />
            </Array>
          </mxGeometry>
        </mxCell>
        <mxCell id="dLc1B_IZl05POrYxlycI-13" value="&lt;h3&gt;Tập Trung&lt;/h3&gt;" style="rounded=0;whiteSpace=wrap;html=1;" vertex="1" parent="1">
          <mxGeometry x="80" y="290" width="140" height="50" as="geometry" />
        </mxCell>
        <mxCell id="dLc1B_IZl05POrYxlycI-23" style="edgeStyle=orthogonalEdgeStyle;rounded=0;orthogonalLoop=1;jettySize=auto;html=1;exitX=0.5;exitY=0;exitDx=0;exitDy=0;entryX=0.5;entryY=1;entryDx=0;entryDy=0;" edge="1" parent="1" source="dLc1B_IZl05POrYxlycI-14" target="dLc1B_IZl05POrYxlycI-13">
          <mxGeometry relative="1" as="geometry" />
        </mxCell>
        <mxCell id="dLc1B_IZl05POrYxlycI-29" value="" style="edgeStyle=orthogonalEdgeStyle;rounded=0;orthogonalLoop=1;jettySize=auto;html=1;" edge="1" parent="1" source="dLc1B_IZl05POrYxlycI-14" target="dLc1B_IZl05POrYxlycI-16">
          <mxGeometry relative="1" as="geometry" />
        </mxCell>
        <mxCell id="dLc1B_IZl05POrYxlycI-14" value="&lt;h3&gt;Hồi Tiếp&amp;nbsp;&lt;/h3&gt;" style="rounded=0;whiteSpace=wrap;html=1;" vertex="1" parent="1">
          <mxGeometry x="80" y="410" width="140" height="50" as="geometry" />
        </mxCell>
        <mxCell id="dLc1B_IZl05POrYxlycI-22" style="edgeStyle=orthogonalEdgeStyle;rounded=0;orthogonalLoop=1;jettySize=auto;html=1;exitX=0.5;exitY=0;exitDx=0;exitDy=0;entryX=0.5;entryY=1;entryDx=0;entryDy=0;" edge="1" parent="1" source="dLc1B_IZl05POrYxlycI-15" target="dLc1B_IZl05POrYxlycI-14">
          <mxGeometry relative="1" as="geometry" />
        </mxCell>
        <mxCell id="dLc1B_IZl05POrYxlycI-15" value="&lt;font size=&quot;3&quot;&gt;Embedding&amp;nbsp;&lt;/font&gt;" style="rounded=0;whiteSpace=wrap;html=1;fontStyle=1" vertex="1" parent="1">
          <mxGeometry x="80" y="520" width="140" height="50" as="geometry" />
        </mxCell>
        <mxCell id="dLc1B_IZl05POrYxlycI-31" style="edgeStyle=orthogonalEdgeStyle;rounded=0;orthogonalLoop=1;jettySize=auto;html=1;exitX=0.5;exitY=0;exitDx=0;exitDy=0;entryX=0.5;entryY=1;entryDx=0;entryDy=0;" edge="1" parent="1" source="dLc1B_IZl05POrYxlycI-16" target="dLc1B_IZl05POrYxlycI-12">
          <mxGeometry relative="1" as="geometry" />
        </mxCell>
        <mxCell id="dLc1B_IZl05POrYxlycI-32" style="rounded=0;orthogonalLoop=1;jettySize=auto;html=1;exitX=0.5;exitY=0;exitDx=0;exitDy=0;entryX=1;entryY=0.25;entryDx=0;entryDy=0;edgeStyle=orthogonalEdgeStyle;curved=1;" edge="1" parent="1" source="dLc1B_IZl05POrYxlycI-16" target="dLc1B_IZl05POrYxlycI-13">
          <mxGeometry relative="1" as="geometry">
            <Array as="points">
              <mxPoint x="390" y="370" />
              <mxPoint x="290" y="370" />
              <mxPoint x="290" y="303" />
            </Array>
          </mxGeometry>
        </mxCell>
        <mxCell id="dLc1B_IZl05POrYxlycI-16" value="&lt;h3&gt;Hồi Tiếp&amp;nbsp;&lt;/h3&gt;" style="rounded=0;whiteSpace=wrap;html=1;" vertex="1" parent="1">
          <mxGeometry x="320" y="410" width="140" height="50" as="geometry" />
        </mxCell>
        <mxCell id="dLc1B_IZl05POrYxlycI-30" style="edgeStyle=orthogonalEdgeStyle;rounded=0;orthogonalLoop=1;jettySize=auto;html=1;exitX=0.5;exitY=0;exitDx=0;exitDy=0;entryX=0.5;entryY=1;entryDx=0;entryDy=0;" edge="1" parent="1" source="dLc1B_IZl05POrYxlycI-17" target="dLc1B_IZl05POrYxlycI-16">
          <mxGeometry relative="1" as="geometry" />
        </mxCell>
        <mxCell id="dLc1B_IZl05POrYxlycI-17" value="&lt;font size=&quot;3&quot;&gt;Embedding&amp;nbsp;&lt;/font&gt;" style="rounded=0;whiteSpace=wrap;html=1;fontStyle=1" vertex="1" parent="1">
          <mxGeometry x="320" y="520" width="140" height="50" as="geometry" />
        </mxCell>
        <mxCell id="dLc1B_IZl05POrYxlycI-18" value="&lt;h2&gt;Bộ Mã Hoá&lt;/h2&gt;" style="text;html=1;strokeColor=none;fillColor=none;align=center;verticalAlign=middle;whiteSpace=wrap;rounded=0;" vertex="1" parent="1">
          <mxGeometry x="80" y="210" width="160" height="30" as="geometry" />
        </mxCell>
        <mxCell id="dLc1B_IZl05POrYxlycI-19" value="&lt;h2&gt;Bộ Giải Mã&amp;nbsp;&lt;/h2&gt;" style="text;html=1;strokeColor=none;fillColor=none;align=center;verticalAlign=middle;whiteSpace=wrap;rounded=0;" vertex="1" parent="1">
          <mxGeometry x="300" y="210" width="190" height="30" as="geometry" />
        </mxCell>
        <mxCell id="dLc1B_IZl05POrYxlycI-25" style="edgeStyle=orthogonalEdgeStyle;rounded=0;orthogonalLoop=1;jettySize=auto;html=1;exitX=0.5;exitY=0;exitDx=0;exitDy=0;entryX=0.5;entryY=1;entryDx=0;entryDy=0;" edge="1" parent="1" source="dLc1B_IZl05POrYxlycI-20" target="dLc1B_IZl05POrYxlycI-15">
          <mxGeometry relative="1" as="geometry" />
        </mxCell>
        <mxCell id="dLc1B_IZl05POrYxlycI-20" value="&lt;h2&gt;Nguồn&amp;nbsp;&lt;/h2&gt;" style="text;html=1;strokeColor=none;fillColor=none;align=center;verticalAlign=middle;whiteSpace=wrap;rounded=0;" vertex="1" parent="1">
          <mxGeometry x="120" y="630" width="60" height="30" as="geometry" />
        </mxCell>
        <mxCell id="dLc1B_IZl05POrYxlycI-34" style="edgeStyle=orthogonalEdgeStyle;rounded=0;orthogonalLoop=1;jettySize=auto;html=1;exitX=0.5;exitY=0;exitDx=0;exitDy=0;entryX=0.5;entryY=1;entryDx=0;entryDy=0;" edge="1" parent="1" source="dLc1B_IZl05POrYxlycI-21" target="dLc1B_IZl05POrYxlycI-17">
          <mxGeometry relative="1" as="geometry" />
        </mxCell>
        <mxCell id="dLc1B_IZl05POrYxlycI-21" value="&lt;h2&gt;Mục Tiêu&lt;/h2&gt;" style="text;html=1;strokeColor=none;fillColor=none;align=center;verticalAlign=middle;whiteSpace=wrap;rounded=0;" vertex="1" parent="1">
          <mxGeometry x="330" y="630" width="120" height="30" as="geometry" />
        </mxCell>
        <mxCell id="dLc1B_IZl05POrYxlycI-33" value="" style="endArrow=classic;html=1;rounded=0;entryX=0.857;entryY=1.018;entryDx=0;entryDy=0;entryPerimeter=0;" edge="1" parent="1" target="dLc1B_IZl05POrYxlycI-13">
          <mxGeometry width="50" height="50" relative="1" as="geometry">
            <mxPoint x="150" y="380" as="sourcePoint" />
            <mxPoint x="320" y="370" as="targetPoint" />
            <Array as="points">
              <mxPoint x="200" y="380" />
            </Array>
          </mxGeometry>
        </mxCell>
        <mxCell id="dLc1B_IZl05POrYxlycI-35" value="Chuỗi sang chuỗi có tập trung" style="text;html=1;strokeColor=none;fillColor=none;align=center;verticalAlign=middle;whiteSpace=wrap;rounded=0;fontStyle=1;fontSize=23;fontFamily=Helvetica;" vertex="1" parent="1">
          <mxGeometry x="100" y="80" width="360" height="100" as="geometry" />
        </mxCell>
        <mxCell id="dLc1B_IZl05POrYxlycI-38" value="x&amp;nbsp; n" style="text;html=1;strokeColor=none;fillColor=none;align=center;verticalAlign=middle;whiteSpace=wrap;rounded=0;fontSize=14;" vertex="1" parent="1">
          <mxGeometry x="480" y="420" width="60" height="30" as="geometry" />
        </mxCell>
        <mxCell id="dLc1B_IZl05POrYxlycI-39" value="n&amp;nbsp; x" style="text;html=1;strokeColor=none;fillColor=none;align=center;verticalAlign=middle;whiteSpace=wrap;rounded=0;fontSize=14;" vertex="1" parent="1">
          <mxGeometry y="420" width="60" height="30" as="geometry" />
        </mxCell>
        <mxCell id="4-7ApPX3nYWWJ4g4WrPT-9" value="" style="edgeStyle=orthogonalEdgeStyle;rounded=0;orthogonalLoop=1;jettySize=auto;html=1;" edge="1" parent="1" source="4-7ApPX3nYWWJ4g4WrPT-2" target="4-7ApPX3nYWWJ4g4WrPT-8">
          <mxGeometry relative="1" as="geometry" />
        </mxCell>
        <mxCell id="4-7ApPX3nYWWJ4g4WrPT-2" value="&lt;font size=&quot;3&quot;&gt;Embedding&amp;nbsp;&lt;/font&gt;" style="rounded=0;whiteSpace=wrap;html=1;fontStyle=1" vertex="1" parent="1">
          <mxGeometry x="829" y="540" width="120" height="40" as="geometry" />
        </mxCell>
        <mxCell id="4-7ApPX3nYWWJ4g4WrPT-77" style="edgeStyle=orthogonalEdgeStyle;rounded=0;orthogonalLoop=1;jettySize=auto;html=1;exitX=0.5;exitY=0;exitDx=0;exitDy=0;entryX=0;entryY=0.5;entryDx=0;entryDy=0;" edge="1" parent="1" source="4-7ApPX3nYWWJ4g4WrPT-4" target="dLc1B_IZl05POrYxlycI-2">
          <mxGeometry relative="1" as="geometry" />
        </mxCell>
        <mxCell id="4-7ApPX3nYWWJ4g4WrPT-78" style="edgeStyle=orthogonalEdgeStyle;rounded=0;orthogonalLoop=1;jettySize=auto;html=1;exitX=0.5;exitY=0;exitDx=0;exitDy=0;entryX=0;entryY=0.75;entryDx=0;entryDy=0;" edge="1" parent="1" source="4-7ApPX3nYWWJ4g4WrPT-4" target="dLc1B_IZl05POrYxlycI-2">
          <mxGeometry relative="1" as="geometry" />
        </mxCell>
        <mxCell id="4-7ApPX3nYWWJ4g4WrPT-4" value="&lt;h3&gt;Cộng &amp;amp; chuẩn hoá&amp;nbsp;&lt;/h3&gt;" style="rounded=0;whiteSpace=wrap;html=1;" vertex="1" parent="1">
          <mxGeometry x="819" y="-20" width="140" height="50" as="geometry" />
        </mxCell>
        <mxCell id="4-7ApPX3nYWWJ4g4WrPT-7" style="edgeStyle=orthogonalEdgeStyle;rounded=0;orthogonalLoop=1;jettySize=auto;html=1;exitX=0.5;exitY=0;exitDx=0;exitDy=0;entryX=0.5;entryY=1;entryDx=0;entryDy=0;" edge="1" parent="1" source="4-7ApPX3nYWWJ4g4WrPT-5" target="4-7ApPX3nYWWJ4g4WrPT-2">
          <mxGeometry relative="1" as="geometry" />
        </mxCell>
        <mxCell id="4-7ApPX3nYWWJ4g4WrPT-5" value="&lt;h2&gt;Nguồn&amp;nbsp;&lt;/h2&gt;" style="text;html=1;strokeColor=none;fillColor=none;align=center;verticalAlign=middle;whiteSpace=wrap;rounded=0;" vertex="1" parent="1">
          <mxGeometry x="860" y="640" width="60" height="30" as="geometry" />
        </mxCell>
        <mxCell id="4-7ApPX3nYWWJ4g4WrPT-81" style="edgeStyle=orthogonalEdgeStyle;rounded=0;orthogonalLoop=1;jettySize=auto;html=1;exitX=0.5;exitY=0;exitDx=0;exitDy=0;entryX=0.5;entryY=1;entryDx=0;entryDy=0;" edge="1" parent="1" source="4-7ApPX3nYWWJ4g4WrPT-6" target="4-7ApPX3nYWWJ4g4WrPT-46">
          <mxGeometry relative="1" as="geometry" />
        </mxCell>
        <mxCell id="4-7ApPX3nYWWJ4g4WrPT-6" value="&lt;h2&gt;Mục Tiêu&lt;/h2&gt;" style="text;html=1;strokeColor=none;fillColor=none;align=center;verticalAlign=middle;whiteSpace=wrap;rounded=0;" vertex="1" parent="1">
          <mxGeometry x="1139" y="630" width="120" height="30" as="geometry" />
        </mxCell>
        <mxCell id="4-7ApPX3nYWWJ4g4WrPT-11" value="" style="edgeStyle=orthogonalEdgeStyle;rounded=0;orthogonalLoop=1;jettySize=auto;html=1;" edge="1" parent="1" source="4-7ApPX3nYWWJ4g4WrPT-8" target="dLc1B_IZl05POrYxlycI-8">
          <mxGeometry relative="1" as="geometry" />
        </mxCell>
        <mxCell id="4-7ApPX3nYWWJ4g4WrPT-8" value="&lt;h1&gt;+&lt;/h1&gt;" style="ellipse;whiteSpace=wrap;html=1;aspect=fixed;fillColor=#33FFFF;fontColor=#121111;" vertex="1" parent="1">
          <mxGeometry x="869" y="460" width="40" height="40" as="geometry" />
        </mxCell>
        <mxCell id="4-7ApPX3nYWWJ4g4WrPT-16" value="" style="endArrow=classic;html=1;rounded=0;entryX=0.25;entryY=1;entryDx=0;entryDy=0;" edge="1" parent="1">
          <mxGeometry width="50" height="50" relative="1" as="geometry">
            <mxPoint x="894" y="430" as="sourcePoint" />
            <mxPoint x="858" y="400" as="targetPoint" />
            <Array as="points">
              <mxPoint x="858" y="430" />
            </Array>
          </mxGeometry>
        </mxCell>
        <mxCell id="4-7ApPX3nYWWJ4g4WrPT-17" value="" style="endArrow=classic;html=1;rounded=0;entryX=0.75;entryY=1;entryDx=0;entryDy=0;" edge="1" parent="1" target="dLc1B_IZl05POrYxlycI-8">
          <mxGeometry width="50" height="50" relative="1" as="geometry">
            <mxPoint x="890" y="430" as="sourcePoint" />
            <mxPoint x="870" y="330" as="targetPoint" />
            <Array as="points">
              <mxPoint x="924" y="430" />
            </Array>
          </mxGeometry>
        </mxCell>
        <mxCell id="4-7ApPX3nYWWJ4g4WrPT-18" value="" style="endArrow=classic;html=1;rounded=0;entryX=0;entryY=0.5;entryDx=0;entryDy=0;edgeStyle=orthogonalEdgeStyle;curved=1;" edge="1" parent="1">
          <mxGeometry width="50" height="50" relative="1" as="geometry">
            <mxPoint x="860" y="430" as="sourcePoint" />
            <mxPoint x="819" y="246" as="targetPoint" />
            <Array as="points">
              <mxPoint x="790" y="430" />
              <mxPoint x="790" y="246" />
            </Array>
          </mxGeometry>
        </mxCell>
        <mxCell id="4-7ApPX3nYWWJ4g4WrPT-19" value="" style="endArrow=classic;html=1;rounded=0;entryX=0;entryY=0.5;entryDx=0;entryDy=0;" edge="1" parent="1" target="4-7ApPX3nYWWJ4g4WrPT-4">
          <mxGeometry width="50" height="50" relative="1" as="geometry">
            <mxPoint x="890" y="180" as="sourcePoint" />
            <mxPoint x="930" y="170" as="targetPoint" />
            <Array as="points">
              <mxPoint x="770" y="180" />
              <mxPoint x="770" y="5" />
            </Array>
          </mxGeometry>
        </mxCell>
        <mxCell id="4-7ApPX3nYWWJ4g4WrPT-37" value="" style="edgeStyle=orthogonalEdgeStyle;rounded=0;orthogonalLoop=1;jettySize=auto;html=1;entryX=1;entryY=0.5;entryDx=0;entryDy=0;" edge="1" parent="1" source="4-7ApPX3nYWWJ4g4WrPT-38" target="4-7ApPX3nYWWJ4g4WrPT-49">
          <mxGeometry relative="1" as="geometry" />
        </mxCell>
        <mxCell id="4-7ApPX3nYWWJ4g4WrPT-38" value="&lt;h3&gt;Mã hoá vị trí&lt;/h3&gt;" style="rounded=0;whiteSpace=wrap;html=1;fillColor=#99CCFF;" vertex="1" parent="1">
          <mxGeometry x="1290" y="470" width="130" height="40" as="geometry" />
        </mxCell>
        <mxCell id="4-7ApPX3nYWWJ4g4WrPT-39" value="" style="edgeStyle=orthogonalEdgeStyle;rounded=0;orthogonalLoop=1;jettySize=auto;html=1;" edge="1" parent="1" source="4-7ApPX3nYWWJ4g4WrPT-40" target="4-7ApPX3nYWWJ4g4WrPT-47">
          <mxGeometry relative="1" as="geometry" />
        </mxCell>
        <mxCell id="4-7ApPX3nYWWJ4g4WrPT-40" value="&lt;h3&gt;Mạng truyền xuôi theo vị trí&lt;/h3&gt;" style="rounded=0;whiteSpace=wrap;html=1;fillColor=#3399FF;" vertex="1" parent="1">
          <mxGeometry x="1129" y="-110" width="140" height="50" as="geometry" />
        </mxCell>
        <mxCell id="4-7ApPX3nYWWJ4g4WrPT-73" style="edgeStyle=orthogonalEdgeStyle;rounded=0;orthogonalLoop=1;jettySize=auto;html=1;exitX=0.5;exitY=0;exitDx=0;exitDy=0;entryX=0.5;entryY=1;entryDx=0;entryDy=0;" edge="1" parent="1" source="4-7ApPX3nYWWJ4g4WrPT-42" target="dLc1B_IZl05POrYxlycI-2">
          <mxGeometry relative="1" as="geometry" />
        </mxCell>
        <mxCell id="4-7ApPX3nYWWJ4g4WrPT-42" value="&lt;h3&gt;Cộng &amp;amp; chuẩn hoá&amp;nbsp;&lt;/h3&gt;" style="rounded=0;whiteSpace=wrap;html=1;" vertex="1" parent="1">
          <mxGeometry x="1129" y="230" width="140" height="50" as="geometry" />
        </mxCell>
        <mxCell id="4-7ApPX3nYWWJ4g4WrPT-43" value="" style="edgeStyle=orthogonalEdgeStyle;rounded=0;orthogonalLoop=1;jettySize=auto;html=1;" edge="1" parent="1" source="4-7ApPX3nYWWJ4g4WrPT-44" target="4-7ApPX3nYWWJ4g4WrPT-42">
          <mxGeometry relative="1" as="geometry" />
        </mxCell>
        <mxCell id="4-7ApPX3nYWWJ4g4WrPT-44" value="&lt;h3&gt;Tập trung đa đầu có mặt nạ&lt;/h3&gt;" style="rounded=0;whiteSpace=wrap;html=1;" vertex="1" parent="1">
          <mxGeometry x="1129" y="360" width="140" height="50" as="geometry" />
        </mxCell>
        <mxCell id="4-7ApPX3nYWWJ4g4WrPT-45" value="" style="edgeStyle=orthogonalEdgeStyle;rounded=0;orthogonalLoop=1;jettySize=auto;html=1;" edge="1" parent="1" source="4-7ApPX3nYWWJ4g4WrPT-46" target="4-7ApPX3nYWWJ4g4WrPT-49">
          <mxGeometry relative="1" as="geometry" />
        </mxCell>
        <mxCell id="4-7ApPX3nYWWJ4g4WrPT-46" value="&lt;font size=&quot;3&quot;&gt;Embedding&amp;nbsp;&lt;/font&gt;" style="rounded=0;whiteSpace=wrap;html=1;fontStyle=1" vertex="1" parent="1">
          <mxGeometry x="1139" y="550" width="120" height="40" as="geometry" />
        </mxCell>
        <mxCell id="4-7ApPX3nYWWJ4g4WrPT-47" value="&lt;h3&gt;Cộng &amp;amp; chuẩn hoá&amp;nbsp;&lt;/h3&gt;" style="rounded=0;whiteSpace=wrap;html=1;" vertex="1" parent="1">
          <mxGeometry x="1129" y="-210" width="140" height="50" as="geometry" />
        </mxCell>
        <mxCell id="4-7ApPX3nYWWJ4g4WrPT-48" value="" style="edgeStyle=orthogonalEdgeStyle;rounded=0;orthogonalLoop=1;jettySize=auto;html=1;" edge="1" parent="1" source="4-7ApPX3nYWWJ4g4WrPT-49" target="4-7ApPX3nYWWJ4g4WrPT-44">
          <mxGeometry relative="1" as="geometry" />
        </mxCell>
        <mxCell id="4-7ApPX3nYWWJ4g4WrPT-49" value="&lt;h1&gt;+&lt;/h1&gt;" style="ellipse;whiteSpace=wrap;html=1;aspect=fixed;fillColor=#33FFFF;fontColor=#121111;" vertex="1" parent="1">
          <mxGeometry x="1179" y="470" width="40" height="40" as="geometry" />
        </mxCell>
        <mxCell id="4-7ApPX3nYWWJ4g4WrPT-50" value="" style="endArrow=classic;html=1;rounded=0;entryX=0.25;entryY=1;entryDx=0;entryDy=0;" edge="1" parent="1">
          <mxGeometry width="50" height="50" relative="1" as="geometry">
            <mxPoint x="1204" y="440" as="sourcePoint" />
            <mxPoint x="1168" y="410" as="targetPoint" />
            <Array as="points">
              <mxPoint x="1168" y="440" />
            </Array>
          </mxGeometry>
        </mxCell>
        <mxCell id="4-7ApPX3nYWWJ4g4WrPT-51" value="" style="endArrow=classic;html=1;rounded=0;entryX=0.75;entryY=1;entryDx=0;entryDy=0;" edge="1" parent="1" target="4-7ApPX3nYWWJ4g4WrPT-44">
          <mxGeometry width="50" height="50" relative="1" as="geometry">
            <mxPoint x="1200" y="440" as="sourcePoint" />
            <mxPoint x="1180" y="340" as="targetPoint" />
            <Array as="points">
              <mxPoint x="1234" y="440" />
            </Array>
          </mxGeometry>
        </mxCell>
        <mxCell id="4-7ApPX3nYWWJ4g4WrPT-52" value="" style="endArrow=classic;html=1;rounded=0;entryX=0;entryY=0.5;entryDx=0;entryDy=0;edgeStyle=orthogonalEdgeStyle;curved=1;" edge="1" parent="1">
          <mxGeometry width="50" height="50" relative="1" as="geometry">
            <mxPoint x="1170" y="440" as="sourcePoint" />
            <mxPoint x="1129" y="256" as="targetPoint" />
            <Array as="points">
              <mxPoint x="1100" y="440" />
              <mxPoint x="1100" y="256" />
            </Array>
          </mxGeometry>
        </mxCell>
        <mxCell id="4-7ApPX3nYWWJ4g4WrPT-53" value="" style="endArrow=classic;html=1;rounded=0;entryX=0;entryY=0.5;entryDx=0;entryDy=0;" edge="1" parent="1" target="4-7ApPX3nYWWJ4g4WrPT-47">
          <mxGeometry width="50" height="50" relative="1" as="geometry">
            <mxPoint x="1200" y="-15" as="sourcePoint" />
            <mxPoint x="1129" y="-180" as="targetPoint" />
            <Array as="points">
              <mxPoint x="1080" y="-15" />
              <mxPoint x="1080" y="-185" />
            </Array>
          </mxGeometry>
        </mxCell>
        <mxCell id="4-7ApPX3nYWWJ4g4WrPT-75" value="" style="edgeStyle=orthogonalEdgeStyle;rounded=0;orthogonalLoop=1;jettySize=auto;html=1;" edge="1" parent="1" source="4-7ApPX3nYWWJ4g4WrPT-72" target="4-7ApPX3nYWWJ4g4WrPT-40">
          <mxGeometry relative="1" as="geometry" />
        </mxCell>
        <mxCell id="4-7ApPX3nYWWJ4g4WrPT-72" value="&lt;h3&gt;Cộng &amp;amp; chuẩn hoá&amp;nbsp;&lt;/h3&gt;" style="rounded=0;whiteSpace=wrap;html=1;" vertex="1" parent="1">
          <mxGeometry x="1129" y="20" width="140" height="50" as="geometry" />
        </mxCell>
        <mxCell id="4-7ApPX3nYWWJ4g4WrPT-76" value="" style="endArrow=classic;html=1;rounded=0;entryX=1;entryY=0.5;entryDx=0;entryDy=0;" edge="1" parent="1" target="4-7ApPX3nYWWJ4g4WrPT-72">
          <mxGeometry width="50" height="50" relative="1" as="geometry">
            <mxPoint x="1200" y="210" as="sourcePoint" />
            <mxPoint x="1291" y="140" as="targetPoint" />
            <Array as="points">
              <mxPoint x="1290" y="210" />
              <mxPoint x="1290" y="45" />
            </Array>
          </mxGeometry>
        </mxCell>
        <mxCell id="4-7ApPX3nYWWJ4g4WrPT-79" value="&lt;h4&gt;Trạng Thái&lt;/h4&gt;" style="text;html=1;strokeColor=none;fillColor=none;align=center;verticalAlign=middle;whiteSpace=wrap;rounded=0;" vertex="1" parent="1">
          <mxGeometry x="880" y="-70" width="151" height="30" as="geometry" />
        </mxCell>
        <mxCell id="4-7ApPX3nYWWJ4g4WrPT-83" value="n&amp;nbsp; x" style="text;html=1;strokeColor=none;fillColor=none;align=center;verticalAlign=middle;whiteSpace=wrap;rounded=0;fontSize=14;" vertex="1" parent="1">
          <mxGeometry x="700" y="100" width="60" height="30" as="geometry" />
        </mxCell>
        <mxCell id="4-7ApPX3nYWWJ4g4WrPT-85" value="x&amp;nbsp; n" style="text;html=1;strokeColor=none;fillColor=none;align=center;verticalAlign=middle;whiteSpace=wrap;rounded=0;fontSize=14;" vertex="1" parent="1">
          <mxGeometry x="1325" y="100" width="60" height="30" as="geometry" />
        </mxCell>
        <mxCell id="4-7ApPX3nYWWJ4g4WrPT-86" value="&lt;h1&gt;Transformer&lt;/h1&gt;" style="text;html=1;strokeColor=none;fillColor=none;align=center;verticalAlign=middle;whiteSpace=wrap;rounded=0;" vertex="1" parent="1">
          <mxGeometry x="899" y="-170" width="60" height="30" as="geometry" />
        </mxCell>
        <mxCell id="4-7ApPX3nYWWJ4g4WrPT-102" value="" style="edgeStyle=orthogonalEdgeStyle;rounded=0;orthogonalLoop=1;jettySize=auto;html=1;" edge="1" parent="1" source="4-7ApPX3nYWWJ4g4WrPT-92" target="4-7ApPX3nYWWJ4g4WrPT-93">
          <mxGeometry relative="1" as="geometry">
            <Array as="points">
              <mxPoint x="180" y="1050" />
              <mxPoint x="180" y="1050" />
            </Array>
          </mxGeometry>
        </mxCell>
        <mxCell id="4-7ApPX3nYWWJ4g4WrPT-110" style="edgeStyle=orthogonalEdgeStyle;rounded=0;orthogonalLoop=1;jettySize=auto;html=1;exitX=0.5;exitY=0;exitDx=0;exitDy=0;entryX=0.065;entryY=1.017;entryDx=0;entryDy=0;entryPerimeter=0;" edge="1" parent="1" source="4-7ApPX3nYWWJ4g4WrPT-92" target="4-7ApPX3nYWWJ4g4WrPT-93">
          <mxGeometry relative="1" as="geometry" />
        </mxCell>
        <mxCell id="4-7ApPX3nYWWJ4g4WrPT-111" style="edgeStyle=orthogonalEdgeStyle;rounded=0;orthogonalLoop=1;jettySize=auto;html=1;exitX=0.5;exitY=0;exitDx=0;exitDy=0;entryX=0.21;entryY=0.985;entryDx=0;entryDy=0;entryPerimeter=0;" edge="1" parent="1" source="4-7ApPX3nYWWJ4g4WrPT-92" target="4-7ApPX3nYWWJ4g4WrPT-93">
          <mxGeometry relative="1" as="geometry" />
        </mxCell>
        <mxCell id="4-7ApPX3nYWWJ4g4WrPT-92" value="&lt;h3&gt;t - 1&lt;/h3&gt;" style="rounded=0;whiteSpace=wrap;html=1;" vertex="1" parent="1">
          <mxGeometry x="120" y="1130" width="120" height="60" as="geometry" />
        </mxCell>
        <mxCell id="4-7ApPX3nYWWJ4g4WrPT-125" style="edgeStyle=orthogonalEdgeStyle;rounded=0;orthogonalLoop=1;jettySize=auto;html=1;exitX=0.25;exitY=0;exitDx=0;exitDy=0;entryX=0.5;entryY=1;entryDx=0;entryDy=0;" edge="1" parent="1" source="4-7ApPX3nYWWJ4g4WrPT-93" target="4-7ApPX3nYWWJ4g4WrPT-97">
          <mxGeometry relative="1" as="geometry">
            <Array as="points">
              <mxPoint x="180" y="990" />
            </Array>
          </mxGeometry>
        </mxCell>
        <mxCell id="4-7ApPX3nYWWJ4g4WrPT-126" style="edgeStyle=orthogonalEdgeStyle;rounded=0;orthogonalLoop=1;jettySize=auto;html=1;exitX=0.5;exitY=0;exitDx=0;exitDy=0;entryX=0.5;entryY=1;entryDx=0;entryDy=0;" edge="1" parent="1" source="4-7ApPX3nYWWJ4g4WrPT-93" target="4-7ApPX3nYWWJ4g4WrPT-98">
          <mxGeometry relative="1" as="geometry" />
        </mxCell>
        <mxCell id="4-7ApPX3nYWWJ4g4WrPT-127" style="edgeStyle=orthogonalEdgeStyle;rounded=0;orthogonalLoop=1;jettySize=auto;html=1;exitX=0.75;exitY=0;exitDx=0;exitDy=0;entryX=0.5;entryY=1;entryDx=0;entryDy=0;" edge="1" parent="1">
          <mxGeometry relative="1" as="geometry">
            <mxPoint x="450" y="990" as="sourcePoint" />
            <mxPoint x="500" y="920" as="targetPoint" />
          </mxGeometry>
        </mxCell>
        <mxCell id="4-7ApPX3nYWWJ4g4WrPT-93" value="&lt;h2&gt;Tự Tập Trung&lt;/h2&gt;" style="rounded=0;whiteSpace=wrap;html=1;fillColor=#99CCFF;" vertex="1" parent="1">
          <mxGeometry x="120" y="990" width="440" height="60" as="geometry" />
        </mxCell>
        <mxCell id="4-7ApPX3nYWWJ4g4WrPT-105" value="" style="edgeStyle=orthogonalEdgeStyle;rounded=0;orthogonalLoop=1;jettySize=auto;html=1;" edge="1" parent="1" source="4-7ApPX3nYWWJ4g4WrPT-94" target="4-7ApPX3nYWWJ4g4WrPT-93">
          <mxGeometry relative="1" as="geometry">
            <Array as="points">
              <mxPoint x="500" y="1060" />
              <mxPoint x="500" y="1060" />
            </Array>
          </mxGeometry>
        </mxCell>
        <mxCell id="4-7ApPX3nYWWJ4g4WrPT-106" style="edgeStyle=orthogonalEdgeStyle;rounded=0;orthogonalLoop=1;jettySize=auto;html=1;exitX=0.25;exitY=0;exitDx=0;exitDy=0;" edge="1" parent="1">
          <mxGeometry relative="1" as="geometry">
            <mxPoint x="470" y="1130" as="sourcePoint" />
            <mxPoint x="470" y="1051" as="targetPoint" />
            <Array as="points">
              <mxPoint x="500" y="1130" />
              <mxPoint x="500" y="1090" />
              <mxPoint x="470" y="1090" />
            </Array>
          </mxGeometry>
        </mxCell>
        <mxCell id="4-7ApPX3nYWWJ4g4WrPT-107" style="edgeStyle=orthogonalEdgeStyle;rounded=0;orthogonalLoop=1;jettySize=auto;html=1;exitX=0.75;exitY=0;exitDx=0;exitDy=0;entryX=0.936;entryY=0.985;entryDx=0;entryDy=0;entryPerimeter=0;" edge="1" parent="1" source="4-7ApPX3nYWWJ4g4WrPT-94" target="4-7ApPX3nYWWJ4g4WrPT-93">
          <mxGeometry relative="1" as="geometry">
            <Array as="points">
              <mxPoint x="500" y="1130" />
              <mxPoint x="500" y="1090" />
              <mxPoint x="532" y="1090" />
            </Array>
          </mxGeometry>
        </mxCell>
        <mxCell id="4-7ApPX3nYWWJ4g4WrPT-94" value="&lt;h3&gt;t + 1&lt;/h3&gt;" style="rounded=0;whiteSpace=wrap;html=1;" vertex="1" parent="1">
          <mxGeometry x="440" y="1130" width="120" height="60" as="geometry" />
        </mxCell>
        <mxCell id="4-7ApPX3nYWWJ4g4WrPT-103" value="" style="edgeStyle=orthogonalEdgeStyle;rounded=0;orthogonalLoop=1;jettySize=auto;html=1;" edge="1" parent="1" source="4-7ApPX3nYWWJ4g4WrPT-95" target="4-7ApPX3nYWWJ4g4WrPT-93">
          <mxGeometry relative="1" as="geometry" />
        </mxCell>
        <mxCell id="4-7ApPX3nYWWJ4g4WrPT-108" style="edgeStyle=orthogonalEdgeStyle;rounded=0;orthogonalLoop=1;jettySize=auto;html=1;exitX=0.5;exitY=0;exitDx=0;exitDy=0;entryX=0.588;entryY=1.004;entryDx=0;entryDy=0;entryPerimeter=0;" edge="1" parent="1" source="4-7ApPX3nYWWJ4g4WrPT-95" target="4-7ApPX3nYWWJ4g4WrPT-93">
          <mxGeometry relative="1" as="geometry" />
        </mxCell>
        <mxCell id="4-7ApPX3nYWWJ4g4WrPT-109" style="edgeStyle=orthogonalEdgeStyle;rounded=0;orthogonalLoop=1;jettySize=auto;html=1;exitX=0.5;exitY=0;exitDx=0;exitDy=0;entryX=0.424;entryY=1.004;entryDx=0;entryDy=0;entryPerimeter=0;" edge="1" parent="1" source="4-7ApPX3nYWWJ4g4WrPT-95" target="4-7ApPX3nYWWJ4g4WrPT-93">
          <mxGeometry relative="1" as="geometry" />
        </mxCell>
        <mxCell id="4-7ApPX3nYWWJ4g4WrPT-95" value="&lt;h3&gt;t&lt;/h3&gt;" style="rounded=0;whiteSpace=wrap;html=1;" vertex="1" parent="1">
          <mxGeometry x="280" y="1130" width="120" height="60" as="geometry" />
        </mxCell>
        <mxCell id="4-7ApPX3nYWWJ4g4WrPT-97" value="&lt;h3&gt;&lt;br&gt;&lt;/h3&gt;" style="rounded=0;whiteSpace=wrap;html=1;" vertex="1" parent="1">
          <mxGeometry x="120" y="860" width="120" height="60" as="geometry" />
        </mxCell>
        <mxCell id="4-7ApPX3nYWWJ4g4WrPT-98" value="&lt;h3&gt;&lt;br&gt;&lt;/h3&gt;" style="rounded=0;whiteSpace=wrap;html=1;" vertex="1" parent="1">
          <mxGeometry x="280" y="860" width="120" height="60" as="geometry" />
        </mxCell>
        <mxCell id="4-7ApPX3nYWWJ4g4WrPT-99" value="&lt;h3&gt;&lt;br&gt;&lt;/h3&gt;" style="rounded=0;whiteSpace=wrap;html=1;" vertex="1" parent="1">
          <mxGeometry x="440" y="860" width="120" height="60" as="geometry" />
        </mxCell>
        <mxCell id="4-7ApPX3nYWWJ4g4WrPT-100" value="&lt;h3&gt;Đầu ra&amp;nbsp;&lt;/h3&gt;" style="text;html=1;strokeColor=none;fillColor=none;align=center;verticalAlign=middle;whiteSpace=wrap;rounded=0;" vertex="1" parent="1">
          <mxGeometry x="10" y="875" width="60" height="30" as="geometry" />
        </mxCell>
        <mxCell id="4-7ApPX3nYWWJ4g4WrPT-101" value="&lt;h3&gt;Đầu vào&lt;/h3&gt;" style="text;html=1;strokeColor=none;fillColor=none;align=center;verticalAlign=middle;whiteSpace=wrap;rounded=0;" vertex="1" parent="1">
          <mxGeometry x="15" y="1145" width="60" height="30" as="geometry" />
        </mxCell>
        <mxCell id="4-7ApPX3nYWWJ4g4WrPT-112" value="&lt;h5 style=&quot;font-size: 6px;&quot;&gt;Truy vấn&lt;/h5&gt;" style="text;html=1;strokeColor=none;fillColor=none;align=center;verticalAlign=middle;whiteSpace=wrap;rounded=0;rotation=-90;fontSize=6;" vertex="1" parent="1">
          <mxGeometry x="125" y="1064" width="30" height="20" as="geometry" />
        </mxCell>
        <mxCell id="4-7ApPX3nYWWJ4g4WrPT-115" value="&lt;h6 style=&quot;font-size: 6px;&quot;&gt;Từ khoá&amp;nbsp;&lt;/h6&gt;" style="text;html=1;strokeColor=none;fillColor=none;align=center;verticalAlign=middle;whiteSpace=wrap;rounded=0;rotation=-90;fontSize=6;" vertex="1" parent="1">
          <mxGeometry x="152" y="1063" width="40" height="20" as="geometry" />
        </mxCell>
        <mxCell id="4-7ApPX3nYWWJ4g4WrPT-116" value="&lt;h6 style=&quot;font-size: 6px;&quot;&gt;Từ khoá&amp;nbsp;&lt;/h6&gt;" style="text;html=1;strokeColor=none;fillColor=none;align=center;verticalAlign=middle;whiteSpace=wrap;rounded=0;rotation=-90;fontSize=6;" vertex="1" parent="1">
          <mxGeometry x="312" y="1064" width="40" height="20" as="geometry" />
        </mxCell>
        <mxCell id="4-7ApPX3nYWWJ4g4WrPT-117" value="&lt;h6 style=&quot;font-size: 6px;&quot;&gt;Từ khoá&amp;nbsp;&lt;/h6&gt;" style="text;html=1;strokeColor=none;fillColor=none;align=center;verticalAlign=middle;whiteSpace=wrap;rounded=0;rotation=-90;fontSize=6;" vertex="1" parent="1">
          <mxGeometry x="475" y="1064" width="40" height="20" as="geometry" />
        </mxCell>
        <mxCell id="4-7ApPX3nYWWJ4g4WrPT-118" value="&lt;h5 style=&quot;font-size: 6px;&quot;&gt;Truy vấn&lt;/h5&gt;" style="text;html=1;strokeColor=none;fillColor=none;align=center;verticalAlign=middle;whiteSpace=wrap;rounded=0;rotation=-90;fontSize=6;" vertex="1" parent="1">
          <mxGeometry x="125" y="1064" width="30" height="20" as="geometry" />
        </mxCell>
        <mxCell id="4-7ApPX3nYWWJ4g4WrPT-119" value="&lt;h5 style=&quot;font-size: 6px;&quot;&gt;Giá&amp;nbsp; trị&amp;nbsp;&lt;/h5&gt;" style="text;html=1;strokeColor=none;fillColor=none;align=center;verticalAlign=middle;whiteSpace=wrap;rounded=0;rotation=-90;fontSize=6;" vertex="1" parent="1">
          <mxGeometry x="191" y="1065" width="30" height="20" as="geometry" />
        </mxCell>
        <mxCell id="4-7ApPX3nYWWJ4g4WrPT-120" value="&lt;h5 style=&quot;font-size: 6px;&quot;&gt;Giá&amp;nbsp; trị&amp;nbsp;&lt;/h5&gt;" style="text;html=1;strokeColor=none;fillColor=none;align=center;verticalAlign=middle;whiteSpace=wrap;rounded=0;rotation=-90;fontSize=6;" vertex="1" parent="1">
          <mxGeometry x="358" y="1065" width="30" height="20" as="geometry" />
        </mxCell>
        <mxCell id="4-7ApPX3nYWWJ4g4WrPT-121" value="&lt;h5 style=&quot;font-size: 6px;&quot;&gt;Truy vấn&lt;/h5&gt;" style="text;html=1;strokeColor=none;fillColor=none;align=center;verticalAlign=middle;whiteSpace=wrap;rounded=0;rotation=-90;fontSize=6;" vertex="1" parent="1">
          <mxGeometry x="285" y="1065" width="30" height="20" as="geometry" />
        </mxCell>
        <mxCell id="4-7ApPX3nYWWJ4g4WrPT-122" value="&lt;h5 style=&quot;font-size: 6px;&quot;&gt;Giá&amp;nbsp; trị&amp;nbsp;&lt;/h5&gt;" style="text;html=1;strokeColor=none;fillColor=none;align=center;verticalAlign=middle;whiteSpace=wrap;rounded=0;rotation=-90;fontSize=6;" vertex="1" parent="1">
          <mxGeometry x="510" y="1065" width="30" height="20" as="geometry" />
        </mxCell>
        <mxCell id="4-7ApPX3nYWWJ4g4WrPT-124" value="&lt;h5 style=&quot;font-size: 6px;&quot;&gt;Truy vấn&lt;/h5&gt;" style="text;html=1;strokeColor=none;fillColor=none;align=center;verticalAlign=middle;whiteSpace=wrap;rounded=0;rotation=-90;fontSize=6;" vertex="1" parent="1">
          <mxGeometry x="448" y="1066" width="30" height="20" as="geometry" />
        </mxCell>
        <mxCell id="4-7ApPX3nYWWJ4g4WrPT-128" value="&lt;h1&gt;Kiến trúc tự tập trung&lt;/h1&gt;" style="text;html=1;strokeColor=none;fillColor=none;align=center;verticalAlign=middle;whiteSpace=wrap;rounded=0;" vertex="1" parent="1">
          <mxGeometry x="70" y="790" width="535" height="30" as="geometry" />
        </mxCell>
        <mxCell id="4-7ApPX3nYWWJ4g4WrPT-129" value="Ma Trận Chuỗi Vào&amp;nbsp;&lt;br style=&quot;font-size: 15px;&quot;&gt;( X )" style="rounded=0;whiteSpace=wrap;html=1;fillColor=#99CCFF;fontStyle=1;fontSize=15;" vertex="1" parent="1">
          <mxGeometry x="920" y="890" width="410" height="210" as="geometry" />
        </mxCell>
        <mxCell id="4-7ApPX3nYWWJ4g4WrPT-130" value="" style="endArrow=classic;startArrow=classic;html=1;rounded=0;" edge="1" parent="1">
          <mxGeometry width="50" height="50" relative="1" as="geometry">
            <mxPoint x="920" y="860" as="sourcePoint" />
            <mxPoint x="1330" y="860" as="targetPoint" />
          </mxGeometry>
        </mxCell>
        <mxCell id="4-7ApPX3nYWWJ4g4WrPT-131" value="" style="endArrow=classic;startArrow=classic;html=1;rounded=0;" edge="1" parent="1">
          <mxGeometry width="50" height="50" relative="1" as="geometry">
            <mxPoint x="900" y="1100" as="sourcePoint" />
            <mxPoint x="900" y="890" as="targetPoint" />
          </mxGeometry>
        </mxCell>
        <mxCell id="4-7ApPX3nYWWJ4g4WrPT-132" value="Độ dài chuỗi" style="text;html=1;strokeColor=none;fillColor=none;align=center;verticalAlign=middle;whiteSpace=wrap;rounded=0;rotation=-90;" vertex="1" parent="1">
          <mxGeometry x="830" y="990" width="120" height="30" as="geometry" />
        </mxCell>
        <mxCell id="4-7ApPX3nYWWJ4g4WrPT-133" value="Kích thước Embedding" style="text;html=1;strokeColor=none;fillColor=none;align=center;verticalAlign=middle;whiteSpace=wrap;rounded=0;" vertex="1" parent="1">
          <mxGeometry x="1020" y="833" width="170" height="30" as="geometry" />
        </mxCell>
        <mxCell id="4-7ApPX3nYWWJ4g4WrPT-134" value="&lt;b style=&quot;font-size: 15px;&quot;&gt;Ma Trận Mã Hoá Vị Trí&amp;nbsp;&lt;br&gt;( P )&lt;/b&gt;" style="rounded=0;whiteSpace=wrap;html=1;fillColor=#99CCFF;" vertex="1" parent="1">
          <mxGeometry x="1440" y="890" width="410" height="210" as="geometry" />
        </mxCell>
        <mxCell id="4-7ApPX3nYWWJ4g4WrPT-135" value="" style="endArrow=classic;startArrow=classic;html=1;rounded=0;" edge="1" parent="1">
          <mxGeometry width="50" height="50" relative="1" as="geometry">
            <mxPoint x="1440" y="860" as="sourcePoint" />
            <mxPoint x="1850" y="860" as="targetPoint" />
          </mxGeometry>
        </mxCell>
        <mxCell id="4-7ApPX3nYWWJ4g4WrPT-136" value="" style="endArrow=classic;startArrow=classic;html=1;rounded=0;" edge="1" parent="1">
          <mxGeometry width="50" height="50" relative="1" as="geometry">
            <mxPoint x="1420" y="1100" as="sourcePoint" />
            <mxPoint x="1420" y="890" as="targetPoint" />
          </mxGeometry>
        </mxCell>
        <mxCell id="4-7ApPX3nYWWJ4g4WrPT-137" value="i" style="text;html=1;strokeColor=none;fillColor=none;align=center;verticalAlign=middle;whiteSpace=wrap;rounded=0;rotation=-90;" vertex="1" parent="1">
          <mxGeometry x="1350" y="990" width="120" height="30" as="geometry" />
        </mxCell>
        <mxCell id="4-7ApPX3nYWWJ4g4WrPT-138" value="j" style="text;html=1;strokeColor=none;fillColor=none;align=center;verticalAlign=middle;whiteSpace=wrap;rounded=0;" vertex="1" parent="1">
          <mxGeometry x="1540" y="833" width="170" height="30" as="geometry" />
        </mxCell>
        <mxCell id="4-7ApPX3nYWWJ4g4WrPT-139" value="&lt;h1&gt;Biểu diễn vị trí&lt;/h1&gt;" style="text;html=1;strokeColor=none;fillColor=none;align=center;verticalAlign=middle;whiteSpace=wrap;rounded=0;" vertex="1" parent="1">
          <mxGeometry x="1110" y="780" width="535" height="30" as="geometry" />
        </mxCell>
      </root>
    </mxGraphModel>
  </diagram>
  <diagram id="zfEMkiMud4VMu3YQm-nV" name="Trang-2">
    <mxGraphModel dx="386" dy="676" grid="1" gridSize="10" guides="1" tooltips="1" connect="1" arrows="1" fold="1" page="1" pageScale="1" pageWidth="827" pageHeight="1169" math="0" shadow="0">
      <root>
        <mxCell id="0" />
        <mxCell id="1" parent="0" />
      </root>
    </mxGraphModel>
  </diagram>
</mxfile>
